<svg id="visual" viewBox="0 0 900 600" width="900" height="600" xmlns="http://www.w3.org/2000/svg" xmlns:xlink="http://www.w3.org/1999/xlink" version="1.1"><rect x="0" y="0" width="900" height="600" fill="#ff6ef0"></rect><g fill="#ffef18"><circle r="78" cx="572" cy="108"></circle><circle r="34" cx="173" cy="554"></circle><circle r="55" cx="598" cy="404"></circle><circle r="74" cx="296" cy="186"></circle><circle r="73" cx="826" cy="61"></circle><circle r="53" cx="32" cy="373"></circle><circle r="57" cx="284" cy="439"></circle><circle r="71" cx="720" cy="206"></circle><circle r="56" cx="191" cy="61"></circle><circle r="40" cx="435" cy="290"></circle><circle r="60" cx="885" cy="519"></circle><circle r="34" cx="515" cy="555"></circle><circle r="37" cx="732" cy="494"></circle><circle r="73" cx="92" cy="189"></circle><circle r="59" cx="827" cy="337"></circle><circle r="66" cx="377" cy="33"></circle><circle r="70" cx="37" cy="7"></circle><circle r="73" cx="360" cy="575"></circle><circle r="40" cx="5" cy="525"></circle></g></svg>